<?xml version="1.0" encoding="utf-8"?>
<!-- Generator: Adobe Illustrator 16.0.0, SVG Export Plug-In . SVG Version: 6.00 Build 0)  -->
<!DOCTYPE svg PUBLIC "-//W3C//DTD SVG 1.1//EN" "http://www.w3.org/Graphics/SVG/1.1/DTD/svg11.dtd">
<svg version="1.1" id="Layer_1" xmlns="http://www.w3.org/2000/svg" xmlns:xlink="http://www.w3.org/1999/xlink" x="0px" y="0px"
     width="35px" height="35px" viewBox="0 0 35 35" style="enable-background:new 0 0 35 35;" xml:space="preserve">
<g>
    <path d="M33.7,17.9l-7.3,6.7c-0.2,0.2-0.4,0.2-0.7,0.1c-0.2-0.1-0.4-0.3-0.4-0.5v-4.2H1.7c-0.3,0-0.6-0.3-0.6-0.6v-3.6
        c0-0.3,0.3-0.6,0.6-0.6h23.7v-4.2c0-0.2,0.1-0.5,0.4-0.5c0.2-0.1,0.5-0.1,0.7,0.1l7.3,6.6c0.1,0.1,0.2,0.3,0.2,0.4
        C33.9,17.6,33.8,17.8,33.7,17.9z"/>
</g>
</svg>
